<?xml version="1.0" encoding="utf-8"?>
<!-- Generator: Adobe Illustrator 26.3.1, SVG Export Plug-In . SVG Version: 6.00 Build 0)  -->
<svg version="1.1" id="Calque_1" xmlns="http://www.w3.org/2000/svg" xmlns:xlink="http://www.w3.org/1999/xlink" x="0px" y="0px"
	 viewBox="0 0 595.28 841.89" style="enable-background:new 0 0 595.28 841.89;" xml:space="preserve">
<style type="text/css">
	.st0{fill:#FFFFFF;stroke:#1D1D1B;stroke-miterlimit:10;}
	.st1{fill:#DE1118;}
	.st2{fill:#DF0A14;}
	.st3{fill:#FCC34E;}
</style>
<rect x="16.67" y="123.52" class="st0" width="560.61" height="619.19"/>
<g>
	<g>
		<path class="st1" d="M104.12,458.76v-7.31l5.64-1.42v-51.58l-5.64-1.42v-7.35h5.64h18.6c3.86,0,7.16,0.9,9.92,2.7
			c2.76,1.8,4.87,4.31,6.33,7.52c1.47,3.21,2.2,6.97,2.2,11.27c0,4.3-0.73,8.06-2.2,11.27c-1.47,3.21-3.58,5.7-6.33,7.47
			c-2.76,1.77-6.06,2.66-9.92,2.66h-9.65v17.46l5.64,1.42v7.31H104.12z M118.71,423.31h9.65c3.17,0,5.55-1.14,7.13-3.42
			c1.58-2.28,2.38-5.16,2.38-8.64c0-3.54-0.79-6.48-2.38-8.83c-1.59-2.34-3.96-3.51-7.13-3.51h-9.65V423.31z"/>
		<path class="st1" d="M163,458.76v-7.31l5.64-1.42v-51.2h-10.4l-0.78,8.83h-6.71v-17.98h44.75v17.98h-6.74l-0.78-8.83h-10.4v51.2
			l5.64,1.42v7.31H163z"/>
		<path class="st1" d="M200.27,458.76v-7.31l5.64-1.42v-51.58l-5.64-1.42v-7.35h20.19v7.35l-5.61,1.42v51.58l5.61,1.42v7.31H200.27z
			"/>
		<path class="st1" d="M263.15,459.75c-3.53,0-6.8-0.58-9.83-1.75c-3.03-1.17-5.97-3.12-8.84-5.84v-15.89h6.92l1.14,10.3
			c1.25,1.2,2.8,2.17,4.63,2.89c1.83,0.73,3.83,1.09,5.98,1.09c2.11,0,3.87-0.4,5.31-1.21c1.43-0.81,2.53-1.94,3.28-3.39
			c0.76-1.46,1.14-3.18,1.14-5.17c0-1.83-0.33-3.46-0.99-4.89c-0.66-1.42-1.76-2.7-3.3-3.82c-1.54-1.12-3.62-2.16-6.25-3.11
			c-3.86-1.39-7.08-3.04-9.67-4.93c-2.59-1.9-4.54-4.18-5.86-6.83c-1.31-2.66-1.97-5.79-1.97-9.39c0-3.7,0.75-6.98,2.25-9.82
			c1.5-2.85,3.59-5.09,6.26-6.74c2.67-1.64,5.76-2.48,9.26-2.51c3.83-0.06,7.22,0.6,10.17,1.99c2.95,1.39,5.44,3.21,7.47,5.46v14.85
			h-6.78l-1.28-9.68c-0.97-0.92-2.23-1.7-3.78-2.35c-1.55-0.65-3.38-0.97-5.48-0.97c-1.8,0-3.38,0.4-4.76,1.19
			c-1.37,0.79-2.45,1.91-3.23,3.34c-0.78,1.44-1.17,3.16-1.17,5.15c0,1.74,0.34,3.26,1.03,4.55c0.69,1.3,1.83,2.48,3.44,3.54
			c1.61,1.06,3.79,2.13,6.53,3.2c5.61,1.99,9.85,4.74,12.74,8.26c2.89,3.51,4.33,7.99,4.33,13.43c0,3.83-0.78,7.17-2.32,10.04
			c-1.55,2.86-3.73,5.08-6.53,6.67S266.92,459.75,263.15,459.75z"/>
		<path class="st1" d="M311.63,459.75c-3.86,0-7.28-0.94-10.26-2.82c-2.98-1.88-5.31-4.59-6.97-8.14c-1.67-3.54-2.5-7.83-2.5-12.86
			v-37.48l-5.64-1.42v-7.35h20.19v7.35l-5.64,1.42v37.48c0,3.2,0.45,5.88,1.35,8.04c0.9,2.17,2.16,3.79,3.8,4.86
			c1.63,1.08,3.54,1.61,5.71,1.61c2.25,0,4.19-0.54,5.84-1.61c1.64-1.07,2.92-2.69,3.83-4.84c0.91-2.15,1.37-4.84,1.37-8.07v-37.48
			l-5.64-1.42v-7.35h20.19v7.35l-5.61,1.42v37.48c0,5.09-0.83,9.41-2.5,12.95c-1.67,3.54-4.01,6.24-7.01,8.09
			S315.63,459.75,311.63,459.75z"/>
		<path class="st1" d="M341.44,458.76v-7.31l5.64-1.42v-51.58l-5.64-1.42v-7.35h20.19v7.35l-5.61,1.42v51.58l5.61,1.42v7.31H341.44z
			"/>
		<path class="st1" d="M386.41,459.75c-3.53,0-6.8-0.58-9.83-1.75c-3.03-1.17-5.97-3.12-8.84-5.84v-15.89h6.92l1.14,10.3
			c1.25,1.2,2.8,2.17,4.63,2.89c1.83,0.73,3.83,1.09,5.98,1.09c2.11,0,3.87-0.4,5.31-1.21s2.53-1.94,3.28-3.39
			c0.76-1.46,1.14-3.18,1.14-5.17c0-1.83-0.33-3.46-0.99-4.89c-0.66-1.42-1.76-2.7-3.3-3.82c-1.54-1.12-3.62-2.16-6.25-3.11
			c-3.86-1.39-7.08-3.04-9.67-4.93c-2.59-1.9-4.54-4.18-5.86-6.83c-1.31-2.66-1.97-5.79-1.97-9.39c0-3.7,0.75-6.98,2.25-9.82
			c1.5-2.85,3.59-5.09,6.26-6.74c2.67-1.64,5.76-2.48,9.26-2.51c3.83-0.06,7.22,0.6,10.17,1.99c2.95,1.39,5.44,3.21,7.47,5.46v14.85
			h-6.78l-1.28-9.68c-0.97-0.92-2.23-1.7-3.78-2.35c-1.55-0.65-3.38-0.97-5.48-0.97c-1.8,0-3.38,0.4-4.75,1.19
			c-1.37,0.79-2.45,1.91-3.23,3.34c-0.78,1.44-1.17,3.16-1.17,5.15c0,1.74,0.34,3.26,1.03,4.55c0.69,1.3,1.83,2.48,3.44,3.54
			c1.61,1.06,3.79,2.13,6.53,3.2c5.61,1.99,9.85,4.74,12.74,8.26c2.89,3.51,4.33,7.99,4.33,13.43c0,3.83-0.78,7.17-2.32,10.04
			c-1.55,2.86-3.73,5.08-6.53,6.67S390.17,459.75,386.41,459.75z"/>
		<path class="st1" d="M430.06,459.75c-3.53,0-6.8-0.58-9.83-1.75c-3.03-1.17-5.97-3.12-8.84-5.84v-15.89h6.92l1.14,10.3
			c1.25,1.2,2.8,2.17,4.63,2.89c1.83,0.73,3.83,1.09,5.98,1.09c2.11,0,3.87-0.4,5.31-1.21s2.53-1.94,3.28-3.39
			c0.76-1.46,1.14-3.18,1.14-5.17c0-1.83-0.33-3.46-0.99-4.89c-0.66-1.42-1.76-2.7-3.3-3.82c-1.54-1.12-3.62-2.16-6.25-3.11
			c-3.86-1.39-7.08-3.04-9.67-4.93c-2.59-1.9-4.54-4.18-5.86-6.83c-1.31-2.66-1.97-5.79-1.97-9.39c0-3.7,0.75-6.98,2.25-9.82
			c1.5-2.85,3.59-5.09,6.26-6.74c2.67-1.64,5.76-2.48,9.26-2.51c3.83-0.06,7.22,0.6,10.17,1.99c2.95,1.39,5.44,3.21,7.47,5.46v14.85
			h-6.78l-1.28-9.68c-0.97-0.92-2.23-1.7-3.78-2.35c-1.55-0.65-3.38-0.97-5.48-0.97c-1.8,0-3.38,0.4-4.75,1.19
			c-1.37,0.79-2.45,1.91-3.23,3.34c-0.78,1.44-1.17,3.16-1.17,5.15c0,1.74,0.34,3.26,1.03,4.55c0.69,1.3,1.83,2.48,3.44,3.54
			c1.61,1.06,3.79,2.13,6.53,3.2c5.61,1.99,9.85,4.74,12.74,8.26c2.89,3.51,4.33,7.99,4.33,13.43c0,3.83-0.78,7.17-2.32,10.04
			c-1.55,2.86-3.73,5.08-6.53,6.67S433.82,459.75,430.06,459.75z"/>
		<path class="st1" d="M453.66,458.76v-7.31l5.64-1.42v-51.58l-5.64-1.42v-7.35h39.36v17.79h-6.96l-0.6-8.59h-17.21v19.55h18.13
			v9.25h-18.13v21.97h18.17l0.6-8.78h6.89v17.89H453.66z"/>
	</g>
</g>
<g>
	<path class="st2" d="M299.52,717.67c-38.81,0-73.97-6.68-105.47-20.04c-31.5-13.36-58.5-32.39-81-57.1
		c-22.5-24.71-39.8-54.14-51.89-88.3c-12.1-34.16-18.14-72.17-18.14-114.02v-7.19c0-41.85,5.97-79.85,17.93-114.02
		c11.95-34.16,29.17-63.66,51.68-88.49c22.5-24.83,49.5-43.93,81-57.29c31.49-13.36,66.65-20.04,105.47-20.04
		c39.66,0,75.3,6.68,106.94,20.04c31.64,13.37,58.64,32.46,81,57.29c22.36,24.84,39.37,54.33,51.05,88.49
		c11.67,34.17,17.51,72.17,17.51,114.02v7.19c0,41.85-5.84,79.86-17.51,114.02c-11.67,34.17-28.62,63.6-50.83,88.3
		c-22.22,24.71-49.15,43.74-80.79,57.1S339.18,717.67,299.52,717.67z M299.52,677.96c44.43,0,81.91-9.96,112.43-29.88
		c30.51-19.91,53.64-47.9,69.4-83.96c15.75-36.05,23.62-78.03,23.62-125.93v-7.94c0-47.9-7.95-89.75-23.83-125.55
		c-15.89-35.8-39.17-63.72-69.82-83.77c-30.66-20.04-68.07-30.06-112.22-30.06c-42.47,0-79.03,10.02-109.69,30.06
		c-30.66,20.04-54.21,48.03-70.66,83.95c-16.45,35.93-24.68,77.72-24.68,125.36v7.94c0,47.9,8.23,89.88,24.68,125.93
		c16.45,36.06,40.08,64.04,70.87,83.96C220.42,668,257.05,677.96,299.52,677.96z"/>
</g>
<path class="st3" d="M160.1,572.72c5.7,7.79,38.46,50.66,114.37,60.9c64.69,8.72,131.32-14.61,171.49-60.9"/>
</svg>
